<svg xmlns="http://www.w3.org/2000/svg" version="1.0" width="512.000000pt" height="512.000000pt" viewBox="0 0 512.000000 512.000000" preserveAspectRatio="xMidYMid meet">

<g transform="translate(0.000000,512.000000) scale(0.100000,-0.100000)" fill="#e43d12" stroke="none">
<path d="M2125 4406 c-88 -88 -293 -676 -375 -1076 -127 -620 -118 -1210 26 -1650 151 -459 456 -777 880 -913 167 -54 245 -68 415 -74 242 -9 410 27 624 133 156 77 280 169 431 319 376 375 681 953 855 1621 78 300 131 605 133 762 1 91 0 94 -27 118 -36 31 -77 31 -249 -1 -73 -13 -173 -29 -223 -36 -117 -15 -451 -15 -585 0 -635 73 -1200 309 -1630 681 -166 144 -223 168 -275 116z m510 -1211 c163 -43 296 -169 356 -340 27 -78 39 -145 26 -145 -14 0 -899 251 -915 260 -19 9 98 127 164 166 119 70 247 90 369 59z m1479 -445 c169 -58 296 -209 341 -404 9 -38 15 -70 13 -71 -7 -6 -928 261 -928 270 0 5 31 39 68 76 72 70 154 119 245 144 67 19 182 13 261 -15z m-1019 -791 c435 -122 791 -222 793 -224 7 -6 -100 -92 -160 -127 -277 -169 -645 -169 -983 -1 -220 110 -380 273 -471 482 -44 99 -44 113 -1 100 17 -5 388 -109 822 -230z" fill="#e43d12"/>
<path d="M1615 3654 c-215 -104 -507 -186 -763 -215 -153 -17 -469 -7 -606 20 -128 25 -195 27 -222 7 -41 -31 -14 -280 66 -611 182 -753 558 -1336 1008 -1561 143 -71 257 -97 432 -98 137 -1 279 19 320 44 8 5 3 21 -19 57 -68 110 -151 315 -195 484 l-18 65 -256 -72 c-142 -41 -262 -73 -269 -74 -15 0 -7 29 28 108 72 160 204 293 371 372 l63 30 1 262 c2 384 40 692 130 1052 25 98 44 179 42 181 -2 1 -52 -22 -113 -51z m-399 -775 c-18 -115 -100 -220 -214 -276 -71 -36 -82 -38 -167 -38 -85 0 -96 3 -166 37 -64 32 -172 121 -158 131 4 4 689 185 703 186 5 1 6 -18 2 -40z" fill="#e43d12"/>
</g>
</svg>